<?xml version="1.0" encoding="UTF-8"?>
<svg version="1.1" xmlns="http://www.w3.org/2000/svg" width="230" height="315">
<path d="M0 0 C62.37 0 124.74 0 189 0 C188.67 62.04 188.34 124.08 188 188 C125.96 188 63.92 188 0 188 C0 125.96 0 63.92 0 0 Z " fill="#FDF100" transform="translate(21,20)"/>
<path d="M0 0 C1.00023193 0.00523682 2.00046387 0.01047363 3.03100586 0.01586914 C4.1105957 0.0190918 5.19018555 0.02231445 6.30249023 0.02563477 C8.00695312 0.03820313 8.00695312 0.03820313 9.74584961 0.05102539 C11.45611328 0.05779297 11.45611328 0.05779297 13.20092773 0.06469727 C16.02845312 0.07652792 18.85587601 0.09301129 21.68334961 0.11352539 C14.48827766 17.50724966 7.12822898 34.825675 -0.31665039 52.11352539 C0.44921387 51.78900391 1.21507812 51.46448242 2.00415039 51.13012695 C5.03062017 49.98175625 7.33050571 49.84675737 10.55834961 49.86352539 C11.54577148 49.85836914 12.53319336 49.85321289 13.55053711 49.84790039 C16.68334961 50.11352539 16.68334961 50.11352539 20.01538086 51.34008789 C25.06371396 52.40459263 27.94996744 50.88333016 32.49584961 48.73852539 C34.00123813 48.06154594 35.50769963 47.38694584 37.01538086 46.71508789 C37.67256104 46.40909668 38.32974121 46.10310547 39.00683594 45.7878418 C40.68334961 45.11352539 40.68334961 45.11352539 42.68334961 45.11352539 C39.97052864 55.12801872 36.02317096 64.62960516 32.17163086 74.24633789 C31.43568086 76.09277877 30.70010637 77.93936936 29.96488953 79.78610229 C28.04026611 84.6175048 26.11058758 89.44687224 24.17980957 94.27581787 C22.2058967 99.21528095 20.23682625 104.15667345 18.26733398 109.09790039 C14.41071322 118.77165799 10.54874335 128.44327023 6.68334961 138.11352539 C6.35334961 138.11352539 6.02334961 138.11352539 5.68334961 138.11352539 C6.31937409 131.57741176 7.35515817 125.24191949 8.67944336 118.81274414 C8.87304947 117.85511673 9.06665558 116.89748932 9.26612854 115.9108429 C9.88066943 112.87347235 10.50037118 109.83718807 11.12084961 106.80102539 C11.93467215 102.80546051 12.74599929 98.80940077 13.55444336 94.81274414 C13.74614105 93.86543427 13.93783875 92.91812439 14.13534546 91.94210815 C15.45898769 85.35255637 16.67553346 78.75978432 17.68334961 72.11352539 C16.9754126 72.42990967 16.26747559 72.74629395 15.53808594 73.07226562 C0.30429326 79.87524113 -14.95847195 86.59494161 -30.31665039 93.11352539 C-31.46749125 89.6610028 -31.15283705 88.88018105 -30.03125 85.52954102 C-29.72103409 84.58445679 -29.41081818 83.63937256 -29.09120178 82.66564941 C-28.74149826 81.62751099 -28.39179474 80.58937256 -28.03149414 79.51977539 C-27.28246508 77.24031014 -26.53498697 74.96033484 -25.78881836 72.67993164 C-25.38669128 71.45612793 -24.98456421 70.23232422 -24.57025146 68.97143555 C-22.60084877 62.94042394 -20.7288588 56.87880948 -18.85039139 50.81900024 C-18.19457723 48.70411698 -17.53707368 46.58976645 -16.8789978 44.47558594 C-15.08266464 38.70431338 -13.28798846 32.93253075 -11.49755859 27.15942383 C-10.3822569 23.56364586 -9.26395709 19.96881246 -8.14365959 16.37458801 C-7.72187262 15.01930661 -7.30123395 13.66366726 -6.88177681 12.30766296 C-6.30374839 10.43933387 -5.72156613 8.5722914 -5.13916016 6.70532227 C-4.81021255 5.64599487 -4.48126495 4.58666748 -4.14234924 3.49523926 C-2.9812587 0.14609393 -2.9812587 0.14609393 0 0 Z " fill="#EC1C24" transform="translate(105.316650390625,45.886474609375)"/>
<path d="M0 0 C5.61 0.33 11.22 0.66 17 1 C17 1.66 17 2.32 17 3 C18.84188612 5.05270463 18.84188612 5.05270463 21 6 C21.33 6.99 21.66 7.98 22 9 C23.31321858 10.6825613 24.64613064 12.34997172 26 14 C26.33 14.66 26.66 15.32 27 16 C27.66 16.99 28.32 17.98 29 19 C29.66 19.99 30.32 20.98 31 22 C31.680625 22.845625 32.36125 23.69125 33.0625 24.5625 C35.2543622 27.32000406 36.40212499 29.80424997 38 33 C38.33 22.44 38.66 11.88 39 1 C43.95 1 48.9 1 54 1 C54 20.47 54 39.94 54 60 C48.06 60 42.12 60 36 60 C35.505 58.02 35.505 58.02 35 56 C34.34 55.34 33.68 54.68 33 54 C31.23221779 51.71661465 29.60324256 49.40486384 28 47 C27.29875 46.154375 26.5975 45.30875 25.875 44.4375 C24 42 24 42 24 40 C22.15811388 37.94729537 22.15811388 37.94729537 20 37 C19.67 36.01 19.34 35.02 19 34 C18.01 33.01 17.02 32.02 16 31 C16 40.57 16 50.14 16 60 C10.72 60 5.44 60 0 60 C0 40.2 0 20.4 0 0 Z " fill="#00ABE8" transform="translate(155,235)"/>
<path d="M0 0 C9.0028125 -0.1546875 9.0028125 -0.1546875 18.1875 -0.3125 C21.01671021 -0.38078003 21.01671021 -0.38078003 23.90307617 -0.45043945 C25.4080223 -0.46505058 26.91298826 -0.47778978 28.41796875 -0.48828125 C29.1912854 -0.51386108 29.96460205 -0.53944092 30.76135254 -0.5657959 C35.04306179 -0.56924277 36.48257317 -0.44825331 39.84887695 2.46801758 C40.55874756 3.30357178 41.26861816 4.13912598 42 5 C42.99 5.33 43.98 5.66 45 6 C48.99320265 12.80323415 49.05316105 19.77252254 47.16796875 27.33984375 C46.22682719 30.30426342 45.29574086 33.17206922 44 36 C43.01 36.495 43.01 36.495 42 37 C41.5875 37.495 41.175 37.99 40.75 38.5 C36.40596209 42.22346106 29.07193472 41.11852618 23.625 41.0625 C20.77875 41.041875 17.9325 41.02125 15 41 C15.33 46.94 15.66 52.88 16 59 C10.39 59 4.78 59 -1 59 C-0.67 39.53 -0.34 20.06 0 0 Z M15 13 C15 17.95 15 22.9 15 28 C17.0625 28.061875 19.125 28.12375 21.25 28.1875 C22.41015625 28.22230469 23.5703125 28.25710938 24.765625 28.29296875 C28.25480857 27.97691951 29.61569922 27.52933124 32 25 C32.48364579 21.19992594 32.56743105 18.93749477 30.5625 15.625 C28.43868459 13.12490902 28.43868459 13.12490902 25.05859375 12.90234375 C23.86363281 12.91394531 22.66867188 12.92554688 21.4375 12.9375 C18.2509375 12.9684375 18.2509375 12.9684375 15 13 Z " fill="#00ABE9" transform="translate(21,236)"/>
<path d="M0 0 C4.95 0 9.9 0 15 0 C15 15.18 15 30.36 15 46 C23.91 46 32.82 46 42 46 C42.495 52.435 42.495 52.435 43 59 C28.48 59 13.96 59 -1 59 C-0.67 39.53 -0.34 20.06 0 0 Z " fill="#00AEEC" transform="translate(90,236)"/>
<path d="M0 0 C4.58503101 2.20081488 9.22986648 2.50149748 14.08984375 0.8203125 C15.37019461 0.27046857 16.65013887 -0.28032303 17.9296875 -0.83203125 C22.20967353 -2.13430458 26.69887532 -1.71967898 31.125 -1.5 C30.81730293 0.31332154 30.50370936 2.12564345 30.1875 3.9375 C30.01347656 4.94683594 29.83945313 5.95617187 29.66015625 6.99609375 C29.125 9.5 29.125 9.5 28.125 10.5 C26.77824313 10.82416467 25.42197422 11.10916799 24.0625 11.375 C20.89554628 12.03645236 18.04256522 12.8714805 15.0625 14.125 C10.34270978 15.94389149 5.79606985 16.67751362 1.078125 14.59765625 C0.37171875 14.23542969 -0.3346875 13.87320313 -1.0625 13.5 C-7.68346267 10.30367319 -14.93536372 10.33120765 -21.9296875 12.40625 C-24.2855704 13.34059449 -26.58805361 14.4077271 -28.875 15.5 C-28.875 11.21 -28.875 6.92 -28.875 2.5 C-20.27389527 -1.73439002 -9.13172189 -4.44878759 0 0 Z " fill="#05ADEC" transform="translate(87.875,144.5)"/>
<path d="M0 0 C11.35030297 -0.51854176 11.35030297 -0.51854176 16.5625 1.5 C21.61428768 3.42886439 26.65218113 3.79631755 32 3 C33.43859375 2.25943359 33.43859375 2.25943359 34.90625 1.50390625 C40.95484409 -1.43638254 48.54889025 -1.07007564 54.91015625 0.90234375 C57.375 2 57.375 2 61 4 C61 8.29 61 12.58 61 17 C58.8653125 16.01 58.8653125 16.01 56.6875 15 C50.2864119 12.43592778 43.75435852 11.6394994 37.17578125 14.0234375 C36.45777344 14.34570312 35.73976562 14.66796875 35 15 C35.99 12.36 36.98 9.72 38 7 C37.46109131 7.25281738 36.92218262 7.50563477 36.36694336 7.76611328 C33.90013826 8.90813799 31.41957208 10.01657282 28.9375 11.125 C28.08994141 11.52332031 27.24238281 11.92164062 26.36914062 12.33203125 C20.75017494 14.80524394 17.92803119 15.27891977 12 13 C8.89327475 12.72542158 8.89327475 12.72542158 5.875 12.8125 C4.88242188 12.81894531 3.88984375 12.82539062 2.8671875 12.83203125 C0.15208761 12.99109024 -2.35242906 13.39387112 -5 14 C-4.34580901 8.93001981 -2.1453591 4.58009223 0 0 Z " fill="#06ADEC" transform="translate(110,84)"/>
<path d="M0 0 C1.06250977 0.00483398 1.06250977 0.00483398 2.14648438 0.00976562 C7.84935569 0.16191215 11.49120272 1.30663515 16.1875 4.4375 C16.1875 8.7275 16.1875 13.0175 16.1875 17.4375 C14.0528125 16.4475 14.0528125 16.4475 11.875 15.4375 C5.82967879 13.04331338 -0.73444207 11.69512534 -6.93359375 14.34375 C-8.22095186 15.06902217 -9.50614383 15.79815362 -10.7890625 16.53125 C-15.53500368 18.65684528 -20.62637702 18.18887857 -25.44921875 16.53125 C-27.62209693 15.57613871 -29.72555747 14.56666698 -31.8125 13.4375 C-31.36373384 11.78903231 -30.90319512 10.14376545 -30.4375 8.5 C-30.18226562 7.58347656 -29.92703125 6.66695312 -29.6640625 5.72265625 C-28.8125 3.4375 -28.8125 3.4375 -26.8125 2.4375 C-25.8225 2.7675 -24.8325 3.0975 -23.8125 3.4375 C-22.02467914 3.58141128 -20.23086132 3.65802009 -18.4375 3.6875 C-17.50164062 3.71328125 -16.56578125 3.7390625 -15.6015625 3.765625 C-12.74626828 3.63253085 -12.74626828 3.63253085 -10.44921875 1.94921875 C-6.98609539 -0.03630531 -3.88594679 -0.05452685 0 0 Z " fill="#04AEEC" transform="translate(154.8125,142.5625)"/>
<path d="M0 0 C1.64453125 0.97265625 1.64453125 0.97265625 2.64453125 1.97265625 C2.71697178 3.99229824 2.72830313 6.01432749 2.70703125 8.03515625 C2.69800781 9.13988281 2.68898437 10.24460937 2.6796875 11.3828125 C2.66808594 12.23746094 2.65648437 13.09210938 2.64453125 13.97265625 C1.88914063 13.66585937 1.13375 13.3590625 0.35546875 13.04296875 C-5.2497857 10.82994322 -10.29881537 9.33511379 -16.35546875 9.97265625 C-18.34911732 10.8944059 -20.23697338 11.94852228 -22.15625 13.015625 C-26.04723203 14.70885874 -30.15781165 14.80062112 -34.35546875 14.97265625 C-35.72515047 12.23329282 -35.09909662 11.10784121 -34.16796875 8.22265625 C-31.74098651 2.46795609 -28.27158325 0.3835543 -22.6484375 -2.02734375 C-14.51211781 -4.49815969 -7.55336882 -3.79709892 0 0 Z " fill="#04AEEC" transform="translate(168.35546875,116.02734375)"/>
<path d="M0 0 C1.26070312 0.72896484 1.26070312 0.72896484 2.546875 1.47265625 C1.556875 5.10265625 0.566875 8.73265625 -0.453125 12.47265625 C-2.928125 11.97765625 -2.928125 11.97765625 -5.453125 11.47265625 C-12.63945338 10.86041319 -18.27707626 11.2039712 -24.7109375 14.59765625 C-26.453125 15.47265625 -26.453125 15.47265625 -28.453125 15.47265625 C-28.453125 11.18265625 -28.453125 6.89265625 -28.453125 2.47265625 C-19.6182297 -1.87683067 -9.36734862 -4.14325035 0 0 Z " fill="#06ADEB" transform="translate(87.453125,85.52734375)"/>
<path d="M0 0 C0.90105469 0.00902344 1.80210938 0.01804687 2.73046875 0.02734375 C3.41753906 0.03894531 4.10460937 0.05054687 4.8125 0.0625 C3.81292827 8.55885974 3.81292827 8.55885974 1.8125 12.0625 C-1.015625 13.13671875 -1.015625 13.13671875 -4.4375 13.75 C-8.84002382 14.57674122 -12.96313086 15.55836856 -17.1875 17.0625 C-17.1875 13.1025 -17.1875 9.1425 -17.1875 5.0625 C-5.75305375 -0.07471498 -5.75305375 -0.07471498 0 0 Z " fill="#05AEEC" transform="translate(76.1875,112.9375)"/>
<path d="M0 0 C-3.71059996 4.23850603 -8.89263453 5.68490452 -14 7.75 C-15.5159375 8.38615234 -15.5159375 8.38615234 -17.0625 9.03515625 C-18.031875 9.43089844 -19.00125 9.82664062 -20 10.234375 C-21.3303125 10.77916504 -21.3303125 10.77916504 -22.6875 11.33496094 C-25 12 -25 12 -28 11 C-24.12206777 0.73892268 -24.12206777 0.73892268 -20.4375 -1.6875 C-6.4078987 -2.9629183 -6.4078987 -2.9629183 0 0 Z " fill="#FBEE03" transform="translate(127,98)"/>
<path d="M0 0 C1.60031344 3.20062687 0.03173691 5.72271806 -1 9 C-1.64324219 8.94199219 -2.28648438 8.88398437 -2.94921875 8.82421875 C-10.2488834 8.45975618 -15.50548394 10.02372245 -22.15234375 13.00390625 C-25.19278888 14.06743644 -26.05067925 13.91012806 -29 13 C-25.1050812 11.20634041 -21.20890763 9.4154228 -17.3125 7.625 C-15.65831055 6.86316406 -15.65831055 6.86316406 -13.97070312 6.0859375 C-12.90400391 5.59609375 -11.83730469 5.10625 -10.73828125 4.6015625 C-9.75899658 4.15119629 -8.77971191 3.70083008 -7.77075195 3.23681641 C-5.20298492 2.09060901 -2.61854611 1.02401244 0 0 Z " fill="#0DAFEC" transform="translate(123,117)"/>
<path d="M0 0 C0.33 0.66 0.66 1.32 1 2 C0.0625 4.625 0.0625 4.625 -1 7 C-3.97 7 -6.94 7 -10 7 C-9 4 -9 4 -6.93359375 2.83203125 C-6.10988281 2.49558594 -5.28617187 2.15914063 -4.4375 1.8125 C-3.61121094 1.46832031 -2.78492187 1.12414062 -1.93359375 0.76953125 C-1.29550781 0.51558594 -0.65742187 0.26164062 0 0 Z " fill="#09AEEA" transform="translate(123,117)"/>
<path d="M0 0 C-0.33 0.99 -0.66 1.98 -1 3 C-4.80269732 4.6900877 -7.05272168 5.19873962 -11 4 C-9.73308493 3.32591692 -8.46129251 2.66099503 -7.1875 2 C-6.47980469 1.62875 -5.77210937 1.2575 -5.04296875 0.875 C-3 0 -3 0 0 0 Z " fill="#1EB2DB" transform="translate(105,126)"/>
<path d="M0 0 C0.33 0.66 0.66 1.32 1 2 C3.31 2 5.62 2 8 2 C6 4 6 4 2.875 4.125 C1.451875 4.063125 1.451875 4.063125 0 4 C-0.33 3.34 -0.66 2.68 -1 2 C-0.67 1.34 -0.34 0.68 0 0 Z " fill="#22B6D6" transform="translate(134,127)"/>
<path d="" fill="#000000" transform="translate(0,0)"/>
<path d="" fill="#000000" transform="translate(0,0)"/>
<path d="" fill="#000000" transform="translate(0,0)"/>
<path d="" fill="#000000" transform="translate(0,0)"/>
<path d="" fill="#000000" transform="translate(0,0)"/>
<path d="" fill="#000000" transform="translate(0,0)"/>
<path d="" fill="#000000" transform="translate(0,0)"/>
<path d="" fill="#000000" transform="translate(0,0)"/>
<path d="" fill="#000000" transform="translate(0,0)"/>
<path d="" fill="#000000" transform="translate(0,0)"/>
<path d="" fill="#000000" transform="translate(0,0)"/>
<path d="" fill="#000000" transform="translate(0,0)"/>
<path d="" fill="#000000" transform="translate(0,0)"/>
<path d="" fill="#000000" transform="translate(0,0)"/>
<path d="" fill="#000000" transform="translate(0,0)"/>
<path d="" fill="#000000" transform="translate(0,0)"/>
<path d="" fill="#000000" transform="translate(0,0)"/>
<path d="" fill="#000000" transform="translate(0,0)"/>
<path d="" fill="#000000" transform="translate(0,0)"/>
<path d="" fill="#000000" transform="translate(0,0)"/>
<path d="" fill="#000000" transform="translate(0,0)"/>
<path d="" fill="#000000" transform="translate(0,0)"/>
<path d="" fill="#000000" transform="translate(0,0)"/>
<path d="" fill="#000000" transform="translate(0,0)"/>
<path d="" fill="#000000" transform="translate(0,0)"/>
<path d="" fill="#000000" transform="translate(0,0)"/>
<path d="" fill="#000000" transform="translate(0,0)"/>
<path d="" fill="#000000" transform="translate(0,0)"/>
<path d="" fill="#000000" transform="translate(0,0)"/>
<path d="" fill="#000000" transform="translate(0,0)"/>
<path d="" fill="#000000" transform="translate(0,0)"/>
</svg>
